<svg width="41" height="41" viewBox="0 0 41 41" fill="none" xmlns="http://www.w3.org/2000/svg">
<g filter="url(#filter0_d_20282_104)">
<rect x="2.59999" y="0.800003" width="35.84" height="35.84" rx="3.81277" fill="#59E391"/>
</g>
<path d="M18.8049 22.2058V21.3822C18.8049 20.7851 18.8735 20.2944 19.0108 19.9101C19.1549 19.5258 19.3745 19.2032 19.6697 18.9424C19.9716 18.6747 20.3697 18.4174 20.8638 18.1703C21.2962 17.9507 21.6325 17.7482 21.8727 17.5629C22.1129 17.3708 22.2776 17.1752 22.3668 16.9762C22.4629 16.7771 22.5109 16.5438 22.5109 16.2761C22.5109 15.8438 22.3359 15.4869 21.9859 15.2055C21.6359 14.9173 21.1589 14.7731 20.555 14.7731C19.8344 14.7731 19.2785 14.9344 18.8873 15.257C18.5029 15.5727 18.2833 15.9948 18.2284 16.5232H15.696C15.7715 15.329 16.2107 14.3717 17.0137 13.651C17.8235 12.9304 18.9696 12.5701 20.452 12.5701C21.4266 12.5701 22.2673 12.7348 22.9742 13.0643C23.6811 13.3937 24.2267 13.8398 24.611 14.4025C24.9953 14.9653 25.1875 15.5967 25.1875 16.2967C25.1875 17.0105 25.0056 17.6144 24.6419 18.1086C24.285 18.6027 23.7257 19.0419 22.9639 19.4262C22.5178 19.6527 22.1678 19.8655 21.9138 20.0645C21.6668 20.2635 21.4918 20.4831 21.3888 20.7233C21.2859 20.9567 21.2344 21.2518 21.2344 21.6087V22.2058H18.8049ZM20.0814 26.4882C19.5804 26.4882 19.1721 26.3338 18.8564 26.025C18.5476 25.7162 18.3931 25.3387 18.3931 24.8926C18.3931 24.4259 18.5476 24.0382 18.8564 23.7293C19.1721 23.4136 19.577 23.2558 20.0711 23.2558C20.5721 23.2558 20.9873 23.4136 21.3168 23.7293C21.6462 24.0382 21.8109 24.4225 21.8109 24.8823C21.8109 25.3353 21.6462 25.7162 21.3168 26.025C20.9873 26.3338 20.5756 26.4882 20.0814 26.4882Z" fill="#2B283A"/>
<defs>
<filter id="filter0_d_20282_104" x="0.599991" y="0.800003" width="39.84" height="39.84" filterUnits="userSpaceOnUse" color-interpolation-filters="sRGB">
<feFlood flood-opacity="0" result="BackgroundImageFix"/>
<feColorMatrix in="SourceAlpha" type="matrix" values="0 0 0 0 0 0 0 0 0 0 0 0 0 0 0 0 0 0 127 0" result="hardAlpha"/>
<feOffset dy="2"/>
<feGaussianBlur stdDeviation="1"/>
<feComposite in2="hardAlpha" operator="out"/>
<feColorMatrix type="matrix" values="0 0 0 0 0 0 0 0 0 0 0 0 0 0 0 0 0 0 0.15 0"/>
<feBlend mode="normal" in2="BackgroundImageFix" result="effect1_dropShadow_20282_104"/>
<feBlend mode="normal" in="SourceGraphic" in2="effect1_dropShadow_20282_104" result="shape"/>
</filter>
</defs>
</svg>
